<svg id="adaf157e-c7bb-4576-a8e1-2f5ce2524548" xmlns="http://www.w3.org/2000/svg" height="48px" viewBox="0 0 128 48"><defs><style>.ebb2eaad-8825-4230-b24f-9e8553cd4250{fill:#223544;}.a036d88a-5ee4-4b34-aee7-4e03c9d36216{fill:#fb5531;}</style></defs><rect class="ebb2eaad-8825-4230-b24f-9e8553cd4250" width="128" height="48" rx="16"/><path class="a036d88a-5ee4-4b34-aee7-4e03c9d36216" d="M27.05,36.66a12.66,12.66,0,0,1-12.77-9.8,12.79,12.79,0,0,1,9.61-15.13,13,13,0,0,1,9.27,1.12,2.77,2.77,0,0,1,.68,4.6c-1.43,1.23-3.4,1-4-1.19-.23-.81-.21-.82-.84-.27a5.4,5.4,0,0,1-3.55,1.61,3.92,3.92,0,0,0-1.71.42,5.15,5.15,0,0,1-3.46.25c-.74-.15-.75-.15-.54.56a5.17,5.17,0,0,1,0,3.34,8.92,8.92,0,0,0-.4,4.55c.47,2.88,2.5,4.65,5.56,5a13.46,13.46,0,0,0,7-1.08,6.7,6.7,0,0,0,3.4-3.09,1.77,1.77,0,0,0,.11-2A1.9,1.9,0,0,0,33.38,25c-1.13.13-2.25.34-3.37.5a6.19,6.19,0,0,1-2.27,0,1.63,1.63,0,0,1-.95-2.75,2.67,2.67,0,0,1,1.53-1,21.17,21.17,0,0,1,6.77-.67,5,5,0,0,1,4.42,6.62c-1.71,4.93-5.12,8-10.39,8.86a7.46,7.46,0,0,1-.81.1C27.89,36.67,27.47,36.66,27.05,36.66Z"/><path class="a036d88a-5ee4-4b34-aee7-4e03c9d36216" d="M96.89,23.37a37.33,37.33,0,0,1-.16-4.73,1.84,1.84,0,0,1,2.45-1.83,1.78,1.78,0,0,1,1.21,1.8q0,4.31,0,8.61c0,2.59,0,5.19,0,7.78,0,.42-.08.61-.55.57s-.88,0-1.32,0c-.61,0-1.37.23-1.25-.91a6.92,6.92,0,0,1-4,1.26,5.14,5.14,0,0,1-5.16-3.53A8.66,8.66,0,0,1,88.47,25a5.51,5.51,0,0,1,6-2.93,4,4,0,0,1,1.24.46C96.06,22.79,96.41,23.05,96.89,23.37Zm-.16,5.45a9.21,9.21,0,0,1,0-1.39,1.82,1.82,0,0,0-1-2,2.51,2.51,0,0,0-4,1.14,6.19,6.19,0,0,0,0,4.92A2.48,2.48,0,0,0,94.57,33a3,3,0,0,0,2.16-2.6Z"/><path class="a036d88a-5ee4-4b34-aee7-4e03c9d36216" d="M73,28.62a6.36,6.36,0,0,1,3.82-6,6.51,6.51,0,0,1,7.28,1c2.91,2.41,3.12,7.45.51,10.25a6.84,6.84,0,0,1-9.71.07A7.11,7.11,0,0,1,73,28.62Zm9.66.38a5.45,5.45,0,0,0-.51-2.58,2.58,2.58,0,0,0-2.45-1.57,2.48,2.48,0,0,0-2.42,1.53,6.08,6.08,0,0,0,0,5.14,2.49,2.49,0,0,0,2.4,1.54,2.6,2.6,0,0,0,2.48-1.55A5.2,5.2,0,0,0,82.67,29Z"/><path class="a036d88a-5ee4-4b34-aee7-4e03c9d36216" d="M67.49,17.74a7.83,7.83,0,0,1,4.32,1.13,1.49,1.49,0,1,1-1.44,2.61C67,19.86,64,21.26,63.23,24.9a8.44,8.44,0,0,0,.3,4.92,4.57,4.57,0,0,0,6.81,2.36l.27-.17a1.5,1.5,0,1,1,1.62,2.53,7.72,7.72,0,0,1-5.53,1.32c-4.56-.59-7.3-3.75-7.44-8.51a10,10,0,0,1,1-4.91A8,8,0,0,1,67.49,17.74Z"/><path class="a036d88a-5ee4-4b34-aee7-4e03c9d36216" d="M109.59,30c-1.27,0-2.53,0-3.8,0-.42,0-.48.1-.39.5.53,2.36,2.68,3.5,5.23,2.74.24-.07.47-.18.71-.25a1.28,1.28,0,0,1,1.57.72,1.22,1.22,0,0,1-.54,1.63c-4,2.06-9.67.66-10.48-5A7.7,7.7,0,0,1,103.51,24a6,6,0,0,1,6.43-2.05c2.2.54,3.67,2.45,4,5a10.65,10.65,0,0,1,0,2.46c0,.42-.18.58-.62.57C112.08,29.94,110.83,30,109.59,30Zm-1.51-2.4h2.4c.18,0,.37.05.41-.25a2.76,2.76,0,0,0-1.47-2.59,3,3,0,0,0-4.1,2.51c0,.33.13.33.36.33Z"/><path class="a036d88a-5ee4-4b34-aee7-4e03c9d36216" d="M49.3,28.68c0-1,0-2,0-3,0-.42-.09-.59-.55-.59a1.29,1.29,0,0,1-1.43-1.27,1.31,1.31,0,0,1,1.4-1.38c.6,0,.81-.21.83-.78a13,13,0,0,1,.16-1.38,1.59,1.59,0,0,1,1.7-1.44,1.55,1.55,0,0,1,1.52,1.61c0,.47,0,.93,0,1.4s.09.57.52.54,1.06,0,1.59,0a1.36,1.36,0,0,1,0,2.71c-.57,0-1.14,0-1.71,0-.3,0-.41.1-.41.4,0,2,0,4,.07,5.95,0,1.23.7,1.74,1.94,1.74,1,0,1.55.44,1.6,1.23s-.48,1.28-1.44,1.43a6.71,6.71,0,0,1-2.82-.09A3.85,3.85,0,0,1,49.36,32c-.07-1.1,0-2.2,0-3.3Z"/><path class="a036d88a-5ee4-4b34-aee7-4e03c9d36216" d="M42,28.32c0-1.79,0-3.59,0-5.38,0-.44.07-.64.57-.61.87,0,1.73,0,2.6,0,.32,0,.49,0,.49.43,0,3.65,0,7.3,0,10.94A1.82,1.82,0,1,1,42,33.63C42,31.86,42,30.09,42,28.32Z"/><path class="a036d88a-5ee4-4b34-aee7-4e03c9d36216" d="M43.82,16.42A2,2,0,0,1,46,18.28a2.21,2.21,0,0,1-4.38,0A2,2,0,0,1,43.82,16.42Z"/></svg>