<svg id="e94554b7-2438-4a8c-92ac-1285c4cdbb59" xmlns="http://www.w3.org/2000/svg" height="48px"  viewBox="0 0 128 48"><defs><style>.b9cf9dcd-d53a-4d86-8b68-c5faf8eea27d{fill:#fff;}</style></defs><rect width="128" height="48" rx="16"/><path class="b9cf9dcd-d53a-4d86-8b68-c5faf8eea27d" d="M29.05,12a12.15,12.15,0,0,0-12,12.3A12.28,12.28,0,0,0,25.25,36c.6.11.82-.27.82-.59s0-1.07,0-2.09c-3.34.74-4-1.66-4-1.66a3.22,3.22,0,0,0-1.33-1.8c-1.09-.76.08-.74.08-.74a2.5,2.5,0,0,1,1.84,1.26,2.53,2.53,0,0,0,3.5,1,2.58,2.58,0,0,1,.76-1.65c-2.67-.31-5.47-1.36-5.47-6.08a4.81,4.81,0,0,1,1.23-3.3,4.5,4.5,0,0,1,.11-3.26s1-.33,3.3,1.26a11.18,11.18,0,0,1,6,0c2.28-1.59,3.28-1.26,3.28-1.26a4.67,4.67,0,0,1,.13,3.26,4.85,4.85,0,0,1,1.22,3.3c0,4.73-2.8,5.77-5.47,6.07A3,3,0,0,1,32,32c0,1.65,0,3,0,3.37s.21.71.83.58a12.33,12.33,0,0,0-3.76-24"/><path class="b9cf9dcd-d53a-4d86-8b68-c5faf8eea27d" d="M58.35,22.72H52.84a.26.26,0,0,0-.26.26h0v2.73a.26.26,0,0,0,.26.26H55v3.39a6.58,6.58,0,0,1-1.82.17c-1.57,0-3.77-.58-3.77-5.48s2.29-5.54,4.44-5.54A8.52,8.52,0,0,1,57,19a.26.26,0,0,0,.31-.2v-.06l.62-2.64a.21.21,0,0,0-.1-.2A8.76,8.76,0,0,0,53.17,15c-3.69,0-7.46,1.58-7.46,9.2S50,33,53.68,33a8.91,8.91,0,0,0,4.84-1.31.25.25,0,0,0,.09-.2V23a.26.26,0,0,0-.26-.26ZM87,16a.26.26,0,0,0-.26-.26H83.64a.26.26,0,0,0-.26.26h0V22H78.55V16a.26.26,0,0,0-.26-.26h-3.1a.26.26,0,0,0-.26.26h0V32.4a.26.26,0,0,0,.26.26h3.1a.26.26,0,0,0,.26-.26h0v-7h4.84v7a.26.26,0,0,0,.26.26h3.11A.26.26,0,0,0,87,32.4h0ZM64.32,18.11a2,2,0,1,0-2,2.05A2,2,0,0,0,64.32,18.11Zm-.21,10.81V21.33a.26.26,0,0,0-.26-.26h-3.1a.3.3,0,0,0-.27.29V32.24c0,.31.2.41.45.41h2.79c.31,0,.39-.15.39-.42Zm35-7.83H96a.26.26,0,0,0-.26.26h0v8.07a3.45,3.45,0,0,1-1.9.57c-1.11,0-1.4-.51-1.4-1.6v-7a.26.26,0,0,0-.26-.26H89a.25.25,0,0,0-.26.26h0v7.56c0,3.27,1.8,4.07,4.28,4.07a7.16,7.16,0,0,0,3.67-1.13,5.2,5.2,0,0,0,.11.67.27.27,0,0,0,.23.14h2a.26.26,0,0,0,.26-.26h0v-11a.26.26,0,0,0-.26-.26Zm8.59-.36a5.75,5.75,0,0,0-2.94.78V16a.26.26,0,0,0-.26-.26h-3.11a.26.26,0,0,0-.26.26h0V32.4a.26.26,0,0,0,.26.26h2.16a.26.26,0,0,0,.23-.14,4.83,4.83,0,0,0,.13-.76A5.53,5.53,0,0,0,107.54,33c2.84,0,4.46-1.45,4.46-6.52s-2.59-5.73-4.35-5.73ZM106.44,30a3.66,3.66,0,0,1-1.79-.53V24.25a4,4,0,0,1,1.59-.52c1.11-.1,2.18.24,2.18,2.92s-.49,3.38-2,3.34ZM73,21.07H70.65V18c0-.12-.06-.17-.19-.17H67.27c-.13,0-.19,0-.19.17v3.21l-1.7.42a.25.25,0,0,0-.18.25v2a.26.26,0,0,0,.25.26h1.63V29c0,3.62,2.5,4,4.2,4a7.17,7.17,0,0,0,1.84-.32.25.25,0,0,0,.15-.23V30.18a.26.26,0,0,0-.25-.26h0c-.14,0-.49.06-.85.06-1.14,0-1.53-.54-1.53-1.24V24.12H73a.26.26,0,0,0,.26-.26h0V21.33a.25.25,0,0,0-.26-.26Z"/></svg>